<svg xmlns="http://www.w3.org/2000/svg" width="920" height="340" viewBox="0 0 920 340" role="img" aria-label="GitHub profile pulse"><defs><linearGradient id="bg" x1="0" y1="0" x2="1" y2="1"><stop stop-color="#0a0a15"/><stop offset=".55" stop-color="#11101f"/><stop offset="1" stop-color="#181126"/></linearGradient><linearGradient id="accent" x1="0" x2="1"><stop stop-color="#d8b4fe"/><stop offset=".48" stop-color="#9a83f5"/><stop offset="1" stop-color="#efa5d1"/></linearGradient><filter id="glow"><feGaussianBlur stdDeviation="5" result="b"/><feMerge><feMergeNode in="b"/><feMergeNode in="SourceGraphic"/></feMerge></filter></defs><rect x="1" y="1" width="918" height="338" rx="26" fill="url(#bg)" stroke="#352847"/><circle cx="53" cy="39" r="2" fill="#d5b4ff"/><circle cx="853" cy="42" r="1.5" fill="#efa5d1"/><circle cx="885" cy="294" r="2" fill="#8e76ca"/><text x="42" y="48" fill="#f4edff" font-family="ui-monospace,SFMono-Regular,Menlo,monospace" font-size="17" font-weight="700" text-anchor="start">GITHUB PULSE</text><text x="42" y="72" fill="#8f829f" font-family="ui-monospace,SFMono-Regular,Menlo,monospace" font-size="11" font-weight="400" text-anchor="start">public snapshot · refreshed 2026-09-01</text><g transform="translate(42 96)"><rect width="197" height="88" rx="18" fill="#141221" stroke="#382c4b"/><text x="18" y="31" fill="#a897bd" font-family="ui-monospace,SFMono-Regular,Menlo,monospace" font-size="10" font-weight="700" text-anchor="start">PUBLIC REPOS</text><text x="18" y="65" fill="#f4edff" font-family="Inter,Segoe UI,sans-serif" font-size="27" font-weight="700" text-anchor="start">11</text></g><g transform="translate(251 96)"><rect width="197" height="88" rx="18" fill="#141221" stroke="#382c4b"/><text x="18" y="31" fill="#a897bd" font-family="ui-monospace,SFMono-Regular,Menlo,monospace" font-size="10" font-weight="700" text-anchor="start">FOLLOWERS</text><text x="18" y="65" fill="#f4edff" font-family="Inter,Segoe UI,sans-serif" font-size="27" font-weight="700" text-anchor="start">12</text></g><g transform="translate(460 96)"><rect width="197" height="88" rx="18" fill="#141221" stroke="#382c4b"/><text x="18" y="31" fill="#a897bd" font-family="ui-monospace,SFMono-Regular,Menlo,monospace" font-size="10" font-weight="700" text-anchor="start">FOLLOWING</text><text x="18" y="65" fill="#f4edff" font-family="Inter,Segoe UI,sans-serif" font-size="27" font-weight="700" text-anchor="start">9</text></g><g transform="translate(669 96)"><rect width="209" height="88" rx="18" fill="#141221" stroke="#382c4b"/><text x="18" y="31" fill="#a897bd" font-family="ui-monospace,SFMono-Regular,Menlo,monospace" font-size="10" font-weight="700" text-anchor="start">YEAR CONTRIBUTIONS</text><text x="18" y="65" fill="#f4edff" font-family="Inter,Segoe UI,sans-serif" font-size="27" font-weight="700" text-anchor="start">13,043</text></g><text x="42" y="222" fill="#a897bd" font-family="ui-monospace,SFMono-Regular,Menlo,monospace" font-size="10" font-weight="700" text-anchor="start">TOP PUBLIC LANGUAGES</text><rect x="42" y="239" width="836" height="14" rx="7" fill="#201a2d"/><rect x="42.0" y="239" width="671.3" height="14" rx="4" fill="#b07219" opacity=".9"/><rect x="713.3" y="239" width="115.3" height="14" rx="4" fill="#e34c26" opacity=".9"/><rect x="828.6" y="239" width="26.6" height="14" rx="4" fill="#663399" opacity=".9"/><rect x="855.2" y="239" width="13.5" height="14" rx="4" fill="#3572A5" opacity=".9"/><rect x="868.7" y="239" width="9.0" height="14" rx="4" fill="#70b7ff" opacity=".9"/><rect x="877.6" y="239" width="4.0" height="14" rx="4" fill="#f1e05a" opacity=".9"/><circle cx="47" cy="280" r="5" fill="#b07219"/><text x="59" y="284" fill="#cbbfd7" font-family="ui-monospace,SFMono-Regular,Menlo,monospace" font-size="11" font-weight="400" text-anchor="start">Java  80.3%</text><circle cx="230" cy="280" r="5" fill="#e34c26"/><text x="242" y="284" fill="#cbbfd7" font-family="ui-monospace,SFMono-Regular,Menlo,monospace" font-size="11" font-weight="400" text-anchor="start">HTML  13.8%</text><circle cx="413" cy="280" r="5" fill="#663399"/><text x="425" y="284" fill="#cbbfd7" font-family="ui-monospace,SFMono-Regular,Menlo,monospace" font-size="11" font-weight="400" text-anchor="start">CSS  3.2%</text><circle cx="47" cy="306" r="5" fill="#3572A5"/><text x="59" y="310" fill="#cbbfd7" font-family="ui-monospace,SFMono-Regular,Menlo,monospace" font-size="11" font-weight="400" text-anchor="start">Python  1.6%</text><circle cx="230" cy="306" r="5" fill="#70b7ff"/><text x="242" y="310" fill="#cbbfd7" font-family="ui-monospace,SFMono-Regular,Menlo,monospace" font-size="11" font-weight="400" text-anchor="start">PLpgSQL  1.1%</text><circle cx="413" cy="306" r="5" fill="#f1e05a"/><text x="425" y="310" fill="#cbbfd7" font-family="ui-monospace,SFMono-Regular,Menlo,monospace" font-size="11" font-weight="400" text-anchor="start">JavaScript  0.0%</text><text x="878" y="313" fill="#6f647c" font-family="ui-monospace,SFMono-Regular,Menlo,monospace" font-size="10" font-weight="400" text-anchor="end">owned public repositories</text><rect x="42" y="326" width="836" height="2" rx="1" fill="url(#accent)" opacity=".45" filter="url(#glow)"/></svg>